<?xml version="1.0" encoding="utf-8"?>
<!-- Generator: Adobe Illustrator 17.0.0, SVG Export Plug-In . SVG Version: 6.00 Build 0)  -->
<!DOCTYPE svg PUBLIC "-//W3C//DTD SVG 1.1//EN" "http://www.w3.org/Graphics/SVG/1.1/DTD/svg11.dtd">
<svg version="1.1" id="Layer_1" xmlns="http://www.w3.org/2000/svg" xmlns:xlink="http://www.w3.org/1999/xlink" x="0px" y="0px"
	 width="400px" height="400px" viewBox="0 0 400 400" style="enable-background:new 0 0 400 400;" xml:space="preserve">
<path style="fill:#00A99D;" d="M286.618,76.006l2.286-35.443L137.523,0L32.759,390.986L66.399,400l59.695-222.785l94.193,25.239
	l-2.286,35.443l117.741,31.549l45.069-168.201L286.618,76.006z"/>
<g>
	<path style="fill:#FFFFFF;stroke:#00A99D;stroke-width:20;stroke-miterlimit:10;" d="M322.306,27.724
		c19.08,9.54,33.473,22.351,43.195,38.425c9.714,16.082,14.575,33.655,14.575,52.735c0,20.14-4.597,39.576-13.78,58.3
		c-9.192,18.732-24.297,39.668-45.314,62.806c-21.026,23.146-50.798,51.856-89.306,86.125h156.88l-9.01,64.13h-243.8v-59.36
		c43.46-42.044,75.964-74.813,97.52-98.314c21.548-23.494,37.184-43.46,46.905-59.891c9.714-16.43,14.575-31.883,14.575-46.375
		c0-15.188-4.24-27.03-12.72-35.51c-8.48-8.48-20.67-12.72-36.57-12.72c-13.78,0-25.796,2.915-36.04,8.745
		c-10.252,5.83-20.322,15.287-30.21,28.355l-50.88-38.69c14.484-20.14,31.883-35.684,52.205-46.64
		c20.313-10.948,44.603-16.43,72.875-16.43C280.254,13.414,303.226,18.184,322.306,27.724z"/>
</g>
<g>
</g>
<g>
</g>
<g>
</g>
<g>
</g>
<g>
</g>
<g>
</g>
<g>
</g>
<g>
</g>
<g>
</g>
<g>
</g>
<g>
</g>
<g>
</g>
<g>
</g>
<g>
</g>
<g>
</g>
</svg>
