<?xml version="1.0" encoding="utf-8"?>
<!-- Generator: Adobe Illustrator 17.0.0, SVG Export Plug-In . SVG Version: 6.00 Build 0)  -->
<!DOCTYPE svg PUBLIC "-//W3C//DTD SVG 1.1//EN" "http://www.w3.org/Graphics/SVG/1.1/DTD/svg11.dtd">
<svg version="1.1" id="Layer_1" xmlns="http://www.w3.org/2000/svg" xmlns:xlink="http://www.w3.org/1999/xlink" x="0px" y="0px"
	 width="400px" height="400px" viewBox="0 0 400 400" style="enable-background:new 0 0 400 400;" xml:space="preserve">
<path style="fill:#00A99D;" d="M286.618,76.006l2.286-35.443L137.523,0L32.759,390.986L66.399,400l59.695-222.785l94.193,25.239
	l-2.286,35.443l117.741,31.549l45.069-168.201L286.618,76.006z"/>
<g>
	<path style="fill:#FFFFFF;stroke:#00A99D;stroke-width:20;stroke-miterlimit:10;" d="M320.839,27.438
		c18.362,8.24,32.444,19.313,42.229,33.218c9.785,13.905,14.678,29.274,14.678,46.092c0,21.976-6.438,40.001-19.313,54.075
		c-12.875,14.082-30.819,24.551-53.817,31.415c56.304,7.556,84.46,37.081,84.46,88.581c0,20.262-5.585,38.713-16.737,55.362
		c-11.161,16.657-27.215,29.789-48.153,39.397c-20.945,9.608-45.319,14.42-73.13,14.42c-26.096,0-49.786-4.635-71.069-13.905
		c-21.292-9.27-39.486-22.482-54.59-39.655l45.835-42.744c19.57,22.659,44.29,33.989,74.16,33.989
		c18.194,0,32.783-4.635,43.775-13.904c10.984-9.271,16.479-22.146,16.479-38.625c0-35.704-20.085-53.561-60.255-53.561h-32.444
		l9.27-55.62h22.66c16.48,0,29.612-4.031,39.397-12.103c9.785-8.063,14.678-19.65,14.678-34.762c0-13.39-4.813-23.948-14.42-31.673
		c-9.616-7.725-22.146-11.587-37.596-11.587c-25.75,0-49.439,10.3-71.069,30.9l-41.715-43.26
		c33.298-32.268,73.983-48.41,122.055-48.41C280.926,15.079,302.468,19.199,320.839,27.438z"/>
</g>
<g>
</g>
<g>
</g>
<g>
</g>
<g>
</g>
<g>
</g>
<g>
</g>
<g>
</g>
<g>
</g>
<g>
</g>
<g>
</g>
<g>
</g>
<g>
</g>
<g>
</g>
<g>
</g>
<g>
</g>
</svg>
