<svg xmlns="http://www.w3.org/2000/svg" width="400" height="400">
  <path d="M286.618 76.006l2.286-35.443L137.523 0 32.759 390.986 66.399 400l59.695-222.785 94.193 25.239-2.286 35.443 117.741 31.549 45.069-168.201-94.193-25.239z" fill="#00a99d"/>
  <path d="M322.306 27.724c19.08 9.54 33.473 22.351 43.195 38.425 9.714 16.082 14.575 33.655 14.575 52.735 0 20.14-4.597 39.576-13.78 58.3-9.192 18.732-24.297 39.668-45.314 62.806-21.026 23.146-50.798 51.856-89.306 86.125h156.88l-9.01 64.13h-243.8v-59.36c43.46-42.044 75.964-74.813 97.52-98.314 21.548-23.494 37.184-43.46 46.905-59.891 9.714-16.43 14.575-31.883 14.575-46.375 0-15.188-4.24-27.03-12.72-35.51-8.48-8.48-20.67-12.72-36.57-12.72-13.78 0-25.796 2.915-36.04 8.745-10.252 5.83-20.322 15.287-30.21 28.355l-50.88-38.69c14.484-20.14 31.883-35.684 52.205-46.64 20.313-10.948 44.603-16.43 72.875-16.43 26.848-.001 49.82 4.769 68.9 14.309z" fill="#fff" stroke="#00a99d" stroke-width="20" stroke-miterlimit="10"/>
</svg>
