<svg xmlns="http://www.w3.org/2000/svg" width="400" height="400">
  <path d="M286.618 76.006l2.286-35.443L137.523 0 32.759 390.986 66.399 400l59.695-222.785 94.193 25.239-2.286 35.443 117.741 31.549 45.069-168.201-94.193-25.239z" fill="#00a99d"/>
  <path d="M320.839 27.438c18.362 8.24 32.444 19.313 42.229 33.218 9.785 13.905 14.678 29.274 14.678 46.092 0 21.976-6.438 40.001-19.313 54.075-12.875 14.082-30.819 24.551-53.817 31.415 56.304 7.556 84.46 37.081 84.46 88.581 0 20.262-5.585 38.713-16.737 55.362-11.161 16.657-27.215 29.789-48.153 39.397-20.945 9.608-45.319 14.42-73.13 14.42-26.096 0-49.786-4.635-71.069-13.905-21.292-9.27-39.486-22.482-54.59-39.655l45.835-42.744c19.57 22.659 44.29 33.989 74.16 33.989 18.194 0 32.783-4.635 43.775-13.904 10.984-9.271 16.479-22.146 16.479-38.625 0-35.704-20.085-53.561-60.255-53.561h-32.444l9.27-55.62h22.66c16.48 0 29.612-4.031 39.397-12.103 9.785-8.063 14.678-19.65 14.678-34.762 0-13.39-4.813-23.948-14.42-31.673-9.616-7.725-22.146-11.587-37.596-11.587-25.75 0-49.439 10.3-71.069 30.9l-41.715-43.26c33.298-32.268 73.983-48.41 122.055-48.41 24.719.001 46.261 4.121 64.632 12.36z" fill="#fff" stroke="#00a99d" stroke-width="20" stroke-miterlimit="10"/>
</svg>
